<?xml version="1.0" encoding="UTF-8" standalone="no"?>
<!DOCTYPE svg PUBLIC "-//W3C//DTD SVG 1.1//EN"
 "http://www.w3.org/Graphics/SVG/1.1/DTD/svg11.dtd">
<!-- Generated by graphviz version 14.1.1 (20251213.1925)
 -->
<!-- Title: Architecture Pages: 1 -->
<svg width="1366pt" height="591pt"
 viewBox="0.00 0.00 1366.00 591.00" xmlns="http://www.w3.org/2000/svg" xmlns:xlink="http://www.w3.org/1999/xlink">
<g id="graph0" class="graph" transform="scale(1 1) rotate(0) translate(4 587.48)">
<title>Architecture</title>
<polygon fill="white" stroke="none" points="-4,4 -4,-587.48 1362.06,-587.48 1362.06,4 -4,4"/>
<text xml:space="preserve" text-anchor="middle" x="679.03" y="-566.18" font-family="Arial" font-size="14.00">ontology_hri_system — Event/Procedure Architecture</text>
<g id="clust1" class="cluster">
<title>cluster_events</title>
<path fill="none" stroke="#bbbbbb" d="M226.25,-120.3C226.25,-120.3 477.06,-120.3 477.06,-120.3 483.06,-120.3 489.06,-126.3 489.06,-132.3 489.06,-132.3 489.06,-508.3 489.06,-508.3 489.06,-514.3 483.06,-520.3 477.06,-520.3 477.06,-520.3 226.25,-520.3 226.25,-520.3 220.25,-520.3 214.25,-514.3 214.25,-508.3 214.25,-508.3 214.25,-132.3 214.25,-132.3 214.25,-126.3 220.25,-120.3 226.25,-120.3"/>
<text xml:space="preserve" text-anchor="middle" x="351.66" y="-503" font-family="Arial" font-size="14.00">Events</text>
</g>
<g id="clust2" class="cluster">
<title>cluster_procs</title>
<path fill="none" stroke="#bbbbbb" d="M566.06,-65.3C566.06,-65.3 773.56,-65.3 773.56,-65.3 779.56,-65.3 785.56,-71.3 785.56,-77.3 785.56,-77.3 785.56,-507.3 785.56,-507.3 785.56,-513.3 779.56,-519.3 773.56,-519.3 773.56,-519.3 566.06,-519.3 566.06,-519.3 560.06,-519.3 554.06,-513.3 554.06,-507.3 554.06,-507.3 554.06,-77.3 554.06,-77.3 554.06,-71.3 560.06,-65.3 566.06,-65.3"/>
<text xml:space="preserve" text-anchor="middle" x="669.81" y="-502" font-family="Arial" font-size="14.00">Procedures</text>
</g>
<g id="clust3" class="cluster">
<title>cluster_ont</title>
<path fill="none" stroke="#bbbbbb" d="M903.06,-307.3C903.06,-307.3 1080.56,-307.3 1080.56,-307.3 1086.56,-307.3 1092.56,-313.3 1092.56,-319.3 1092.56,-319.3 1092.56,-533.3 1092.56,-533.3 1092.56,-539.3 1086.56,-545.3 1080.56,-545.3 1080.56,-545.3 903.06,-545.3 903.06,-545.3 897.06,-545.3 891.06,-539.3 891.06,-533.3 891.06,-533.3 891.06,-319.3 891.06,-319.3 891.06,-313.3 897.06,-307.3 903.06,-307.3"/>
<text xml:space="preserve" text-anchor="middle" x="991.81" y="-528" font-family="Arial" font-size="14.00">Ontologies / Knowledge</text>
</g>
<g id="clust4" class="cluster">
<title>cluster_domain</title>
<path fill="none" stroke="#bbbbbb" d="M1159.81,-263.3C1159.81,-263.3 1346.06,-263.3 1346.06,-263.3 1352.06,-263.3 1358.06,-269.3 1358.06,-275.3 1358.06,-275.3 1358.06,-489.3 1358.06,-489.3 1358.06,-495.3 1352.06,-501.3 1346.06,-501.3 1346.06,-501.3 1159.81,-501.3 1159.81,-501.3 1153.81,-501.3 1147.81,-495.3 1147.81,-489.3 1147.81,-489.3 1147.81,-275.3 1147.81,-275.3 1147.81,-269.3 1153.81,-263.3 1159.81,-263.3"/>
<text xml:space="preserve" text-anchor="middle" x="1252.94" y="-484" font-family="Arial" font-size="14.00">Domain Definitions (from config)</text>
</g>
<!-- Scheduler -->
<g id="node1" class="node">
<title>Scheduler</title>
<path fill="#f2f2f2" stroke="black" d="M87.25,-245.3C87.25,-245.3 34.5,-245.3 34.5,-245.3 28.5,-245.3 22.5,-239.3 22.5,-233.3 22.5,-233.3 22.5,-221.3 22.5,-221.3 22.5,-215.3 28.5,-209.3 34.5,-209.3 34.5,-209.3 87.25,-209.3 87.25,-209.3 93.25,-209.3 99.25,-215.3 99.25,-221.3 99.25,-221.3 99.25,-233.3 99.25,-233.3 99.25,-239.3 93.25,-245.3 87.25,-245.3"/>
<text xml:space="preserve" text-anchor="middle" x="60.88" y="-221.88" font-family="Arial" font-size="14.00">Scheduler</text>
</g>
<!-- Event::PoseTick -->
<g id="node11" class="node">
<title>Event::PoseTick</title>
<ellipse fill="#ffffff" stroke="black" cx="351.66" cy="-200.3" rx="75.51" ry="18"/>
<text xml:space="preserve" text-anchor="middle" x="351.66" y="-194.88" font-family="Arial" font-size="14.00">Event::PoseTick</text>
</g>
<!-- Scheduler&#45;&gt;Event::PoseTick -->
<g id="edge2" class="edge">
<title>Scheduler&#45;&gt;Event::PoseTick</title>
<path fill="none" stroke="black" stroke-dasharray="5,2" d="M99.63,-223.77C142.54,-219.76 213.84,-213.09 269.5,-207.89"/>
<polygon fill="black" stroke="black" points="269.64,-211.39 279.27,-206.97 268.98,-204.42 269.64,-211.39"/>
<text xml:space="preserve" text-anchor="middle" x="172" y="-221.77" font-family="Arial" font-size="14.00">dispatches</text>
</g>
<!-- UpperOntology (OU) -->
<g id="node2" class="node">
<title>UpperOntology (OU)</title>
<polygon fill="#fff7e6" stroke="black" points="1062.44,-49.3 1059.44,-53.3 1038.44,-53.3 1035.44,-49.3 921.19,-49.3 921.19,-13.3 1062.44,-13.3 1062.44,-49.3"/>
<text xml:space="preserve" text-anchor="middle" x="991.81" y="-25.88" font-family="Arial" font-size="14.00">UpperOntology (OU)</text>
</g>
<!-- MemoryStore (per&#45;human) -->
<g id="node3" class="node">
<title>MemoryStore (per&#45;human)</title>
<polygon fill="#fff7e6" stroke="black" points="1080.44,-165.3 1077.44,-169.3 1056.44,-169.3 1053.44,-165.3 903.19,-165.3 903.19,-129.3 1080.44,-129.3 1080.44,-165.3"/>
<text xml:space="preserve" text-anchor="middle" x="991.81" y="-141.88" font-family="Arial" font-size="14.00">MemoryStore (per&#45;human)</text>
</g>
<!-- PoseDetectorSim -->
<g id="node4" class="node">
<title>PoseDetectorSim</title>
<polygon fill="#e8f5e9" stroke="black" points="121.75,-191.3 0,-191.3 0,-187.3 -4,-187.3 -4,-183.3 0,-183.3 0,-163.3 -4,-163.3 -4,-159.3 0,-159.3 0,-155.3 121.75,-155.3 121.75,-191.3"/>
<polyline fill="none" stroke="black" points="0,-187.3 4,-187.3 4,-183.3 0,-183.3"/>
<polyline fill="none" stroke="black" points="0,-163.3 4,-163.3 4,-159.3 0,-159.3"/>
<text xml:space="preserve" text-anchor="middle" x="60.88" y="-167.88" font-family="Arial" font-size="14.00">PoseDetectorSim</text>
</g>
<!-- PoseDetectorSim&#45;&gt;Event::PoseTick -->
<g id="edge1" class="edge">
<title>PoseDetectorSim&#45;&gt;Event::PoseTick</title>
<path fill="none" stroke="black" d="M122.06,-178.93C164.74,-182.92 222.51,-188.32 269.3,-192.69"/>
<polygon fill="black" stroke="black" points="268.84,-196.17 279.13,-193.61 269.5,-189.2 268.84,-196.17"/>
<text xml:space="preserve" text-anchor="middle" x="172" y="-188.44" font-family="Arial" font-size="14.00">emits</text>
</g>
<!-- SpotRobotSim -->
<g id="node5" class="node">
<title>SpotRobotSim</title>
<polygon fill="#e3f2fd" stroke="black" points="1043.69,-267.3 939.94,-267.3 939.94,-263.3 935.94,-263.3 935.94,-259.3 939.94,-259.3 939.94,-239.3 935.94,-239.3 935.94,-235.3 939.94,-235.3 939.94,-231.3 1043.69,-231.3 1043.69,-267.3"/>
<polyline fill="none" stroke="black" points="939.94,-263.3 943.94,-263.3 943.94,-259.3 939.94,-259.3"/>
<polyline fill="none" stroke="black" points="939.94,-239.3 943.94,-239.3 943.94,-235.3 939.94,-235.3"/>
<text xml:space="preserve" text-anchor="middle" x="991.81" y="-243.88" font-family="Arial" font-size="14.00">SpotRobotSim</text>
</g>
<!-- Event::ActionRecognized -->
<g id="node6" class="node">
<title>Event::ActionRecognized</title>
<ellipse fill="#ffffff" stroke="black" cx="351.66" cy="-254.3" rx="110.94" ry="18"/>
<text xml:space="preserve" text-anchor="middle" x="351.66" y="-248.88" font-family="Arial" font-size="14.00">Event::ActionRecognized</text>
</g>
<!-- Proc::DispatchTask -->
<g id="node15" class="node">
<title>Proc::DispatchTask</title>
<path fill="#ffffff" stroke="black" d="M723.56,-217.3C723.56,-217.3 616.06,-217.3 616.06,-217.3 610.06,-217.3 604.06,-211.3 604.06,-205.3 604.06,-205.3 604.06,-193.3 604.06,-193.3 604.06,-187.3 610.06,-181.3 616.06,-181.3 616.06,-181.3 723.56,-181.3 723.56,-181.3 729.56,-181.3 735.56,-187.3 735.56,-193.3 735.56,-193.3 735.56,-205.3 735.56,-205.3 735.56,-211.3 729.56,-217.3 723.56,-217.3"/>
<text xml:space="preserve" text-anchor="middle" x="669.81" y="-193.88" font-family="Arial" font-size="14.00">Proc::DispatchTask</text>
</g>
<!-- Event::ActionRecognized&#45;&gt;Proc::DispatchTask -->
<g id="edge9" class="edge">
<title>Event::ActionRecognized&#45;&gt;Proc::DispatchTask</title>
<path fill="none" stroke="black" d="M448.51,-245.23C462.85,-241.13 476.89,-235.37 489.06,-227.3 495.66,-222.93 492.21,-216.53 499.06,-212.55 526.83,-196.41 561.61,-191.59 592.44,-191.38"/>
<polygon fill="black" stroke="black" points="592.05,-194.87 602.09,-191.48 592.13,-187.87 592.05,-194.87"/>
<text xml:space="preserve" text-anchor="middle" x="521.56" y="-215" font-family="Arial" font-size="14.00">triggers</text>
</g>
<!-- Event::BestFamilyChanged -->
<g id="node7" class="node">
<title>Event::BestFamilyChanged</title>
<ellipse fill="#ffffff" stroke="black" cx="351.66" cy="-308.3" rx="119.93" ry="18"/>
<text xml:space="preserve" text-anchor="middle" x="351.66" y="-302.88" font-family="Arial" font-size="14.00">Event::BestFamilyChanged</text>
</g>
<!-- Proc::PrepareFamilyPretask -->
<g id="node18" class="node">
<title>Proc::PrepareFamilyPretask</title>
<path fill="#ffffff" stroke="black" d="M750.56,-325.3C750.56,-325.3 589.06,-325.3 589.06,-325.3 583.06,-325.3 577.06,-319.3 577.06,-313.3 577.06,-313.3 577.06,-301.3 577.06,-301.3 577.06,-295.3 583.06,-289.3 589.06,-289.3 589.06,-289.3 750.56,-289.3 750.56,-289.3 756.56,-289.3 762.56,-295.3 762.56,-301.3 762.56,-301.3 762.56,-313.3 762.56,-313.3 762.56,-319.3 756.56,-325.3 750.56,-325.3"/>
<text xml:space="preserve" text-anchor="middle" x="669.81" y="-301.88" font-family="Arial" font-size="14.00">Proc::PrepareFamilyPretask</text>
</g>
<!-- Event::BestFamilyChanged&#45;&gt;Proc::PrepareFamilyPretask -->
<g id="edge8" class="edge">
<title>Event::BestFamilyChanged&#45;&gt;Proc::PrepareFamilyPretask</title>
<path fill="none" stroke="black" d="M434.55,-294.95C468.41,-290.93 508.1,-288.15 544.06,-290.55 551,-291.01 558.14,-291.62 565.33,-292.33"/>
<polygon fill="black" stroke="black" points="564.82,-295.8 575.14,-293.36 565.56,-288.83 564.82,-295.8"/>
<text xml:space="preserve" text-anchor="middle" x="521.56" y="-293" font-family="Arial" font-size="14.00">triggers</text>
</g>
<!-- Event::EarlyIntentUpdated -->
<g id="node8" class="node">
<title>Event::EarlyIntentUpdated</title>
<ellipse fill="#ffffff" stroke="black" cx="351.66" cy="-416.3" rx="115.43" ry="18"/>
<text xml:space="preserve" text-anchor="middle" x="351.66" y="-410.88" font-family="Arial" font-size="14.00">Event::EarlyIntentUpdated</text>
</g>
<!-- Event::HumanStateUpdated -->
<g id="node9" class="node">
<title>Event::HumanStateUpdated</title>
<ellipse fill="#ffffff" stroke="black" cx="351.66" cy="-470.3" rx="122.92" ry="18"/>
<text xml:space="preserve" text-anchor="middle" x="351.66" y="-464.88" font-family="Arial" font-size="14.00">Event::HumanStateUpdated</text>
</g>
<!-- Event::PoseSegmentUpdated -->
<g id="node10" class="node">
<title>Event::PoseSegmentUpdated</title>
<ellipse fill="#ffffff" stroke="black" cx="351.66" cy="-362.3" rx="129.41" ry="18"/>
<text xml:space="preserve" text-anchor="middle" x="351.66" y="-356.88" font-family="Arial" font-size="14.00">Event::PoseSegmentUpdated</text>
</g>
<!-- Proc::ComputeEarlyIntent -->
<g id="node13" class="node">
<title>Proc::ComputeEarlyIntent</title>
<path fill="#ffffff" stroke="black" d="M743.44,-433.3C743.44,-433.3 596.19,-433.3 596.19,-433.3 590.19,-433.3 584.19,-427.3 584.19,-421.3 584.19,-421.3 584.19,-409.3 584.19,-409.3 584.19,-403.3 590.19,-397.3 596.19,-397.3 596.19,-397.3 743.44,-397.3 743.44,-397.3 749.44,-397.3 755.44,-403.3 755.44,-409.3 755.44,-409.3 755.44,-421.3 755.44,-421.3 755.44,-427.3 749.44,-433.3 743.44,-433.3"/>
<text xml:space="preserve" text-anchor="middle" x="669.81" y="-409.88" font-family="Arial" font-size="14.00">Proc::ComputeEarlyIntent</text>
</g>
<!-- Event::PoseSegmentUpdated&#45;&gt;Proc::ComputeEarlyIntent -->
<g id="edge7" class="edge">
<title>Event::PoseSegmentUpdated&#45;&gt;Proc::ComputeEarlyIntent</title>
<path fill="none" stroke="black" d="M455.83,-373.18C467.64,-377.14 479.03,-382.38 489.06,-389.3 495.97,-394.06 491.85,-401.02 499.06,-405.3 520.96,-418.29 547.36,-423.66 572.76,-425.08"/>
<polygon fill="black" stroke="black" points="572.32,-428.57 582.43,-425.41 572.56,-421.57 572.32,-428.57"/>
<text xml:space="preserve" text-anchor="middle" x="521.56" y="-423.6" font-family="Arial" font-size="14.00">triggers</text>
</g>
<!-- Proc::DetectAction -->
<g id="node14" class="node">
<title>Proc::DetectAction</title>
<path fill="#ffffff" stroke="black" d="M721.69,-379.3C721.69,-379.3 617.94,-379.3 617.94,-379.3 611.94,-379.3 605.94,-373.3 605.94,-367.3 605.94,-367.3 605.94,-355.3 605.94,-355.3 605.94,-349.3 611.94,-343.3 617.94,-343.3 617.94,-343.3 721.69,-343.3 721.69,-343.3 727.69,-343.3 733.69,-349.3 733.69,-355.3 733.69,-355.3 733.69,-367.3 733.69,-367.3 733.69,-373.3 727.69,-379.3 721.69,-379.3"/>
<text xml:space="preserve" text-anchor="middle" x="669.81" y="-355.88" font-family="Arial" font-size="14.00">Proc::DetectAction</text>
</g>
<!-- Event::PoseSegmentUpdated&#45;&gt;Proc::DetectAction -->
<g id="edge6" class="edge">
<title>Event::PoseSegmentUpdated&#45;&gt;Proc::DetectAction</title>
<path fill="none" stroke="black" d="M424.38,-377.57C460.28,-383.42 504.42,-387.92 544.06,-384.3 560.46,-382.8 577.91,-380.22 594.41,-377.31"/>
<polygon fill="black" stroke="black" points="594.96,-380.77 604.17,-375.53 593.7,-373.88 594.96,-380.77"/>
<text xml:space="preserve" text-anchor="middle" x="521.56" y="-388.05" font-family="Arial" font-size="14.00">triggers</text>
</g>
<!-- Proc::UpdateHumanState -->
<g id="node20" class="node">
<title>Proc::UpdateHumanState</title>
<path fill="#ffffff" stroke="black" d="M743.06,-487.3C743.06,-487.3 596.56,-487.3 596.56,-487.3 590.56,-487.3 584.56,-481.3 584.56,-475.3 584.56,-475.3 584.56,-463.3 584.56,-463.3 584.56,-457.3 590.56,-451.3 596.56,-451.3 596.56,-451.3 743.06,-451.3 743.06,-451.3 749.06,-451.3 755.06,-457.3 755.06,-463.3 755.06,-463.3 755.06,-475.3 755.06,-475.3 755.06,-481.3 749.06,-487.3 743.06,-487.3"/>
<text xml:space="preserve" text-anchor="middle" x="669.81" y="-463.88" font-family="Arial" font-size="14.00">Proc::UpdateHumanState</text>
</g>
<!-- Event::PoseSegmentUpdated&#45;&gt;Proc::UpdateHumanState -->
<g id="edge5" class="edge">
<title>Event::PoseSegmentUpdated&#45;&gt;Proc::UpdateHumanState</title>
<path fill="none" stroke="black" d="M462.95,-371.69C472.63,-376.03 481.57,-381.77 489.06,-389.3 505.66,-405.99 482.2,-424.88 499.06,-441.3 518.72,-460.44 546.12,-469.45 573.18,-473.14"/>
<polygon fill="black" stroke="black" points="572.49,-476.58 582.82,-474.2 573.26,-469.62 572.49,-476.58"/>
<text xml:space="preserve" text-anchor="middle" x="521.56" y="-468.64" font-family="Arial" font-size="14.00">triggers</text>
</g>
<!-- Proc::PerceptionToPoseSegment -->
<g id="node17" class="node">
<title>Proc::PerceptionToPoseSegment</title>
<path fill="#ffffff" stroke="black" d="M765.56,-271.3C765.56,-271.3 574.06,-271.3 574.06,-271.3 568.06,-271.3 562.06,-265.3 562.06,-259.3 562.06,-259.3 562.06,-247.3 562.06,-247.3 562.06,-241.3 568.06,-235.3 574.06,-235.3 574.06,-235.3 765.56,-235.3 765.56,-235.3 771.56,-235.3 777.56,-241.3 777.56,-247.3 777.56,-247.3 777.56,-259.3 777.56,-259.3 777.56,-265.3 771.56,-271.3 765.56,-271.3"/>
<text xml:space="preserve" text-anchor="middle" x="669.81" y="-247.88" font-family="Arial" font-size="14.00">Proc::PerceptionToPoseSegment</text>
</g>
<!-- Event::PoseTick&#45;&gt;Proc::PerceptionToPoseSegment -->
<g id="edge4" class="edge">
<title>Event::PoseTick&#45;&gt;Proc::PerceptionToPoseSegment</title>
<path fill="none" stroke="black" d="M408.86,-188.22C461.54,-177.58 533.73,-164.99 544.06,-173.55 562.44,-188.77 537.56,-209.06 554.06,-226.3 554.55,-226.81 555.04,-227.31 555.54,-227.8"/>
<polygon fill="black" stroke="black" points="553.16,-230.37 563.1,-234.05 557.63,-224.98 553.16,-230.37"/>
<text xml:space="preserve" text-anchor="middle" x="521.56" y="-176" font-family="Arial" font-size="14.00">triggers</text>
</g>
<!-- Proc::ResetTickFlags -->
<g id="node19" class="node">
<title>Proc::ResetTickFlags</title>
<path fill="#ffffff" stroke="black" d="M729.94,-163.3C729.94,-163.3 609.69,-163.3 609.69,-163.3 603.69,-163.3 597.69,-157.3 597.69,-151.3 597.69,-151.3 597.69,-139.3 597.69,-139.3 597.69,-133.3 603.69,-127.3 609.69,-127.3 609.69,-127.3 729.94,-127.3 729.94,-127.3 735.94,-127.3 741.94,-133.3 741.94,-139.3 741.94,-139.3 741.94,-151.3 741.94,-151.3 741.94,-157.3 735.94,-163.3 729.94,-163.3"/>
<text xml:space="preserve" text-anchor="middle" x="669.81" y="-139.88" font-family="Arial" font-size="14.00">Proc::ResetTickFlags</text>
</g>
<!-- Event::PoseTick&#45;&gt;Proc::ResetTickFlags -->
<g id="edge3" class="edge">
<title>Event::PoseTick&#45;&gt;Proc::ResetTickFlags</title>
<path fill="none" stroke="black" d="M427.19,-198.43C449,-194.67 471.64,-187.27 489.06,-173.3 497.68,-166.39 489.91,-156.73 499.06,-150.55 524.2,-133.58 556.54,-129.4 586.24,-130.47"/>
<polygon fill="black" stroke="black" points="585.77,-133.95 595.96,-131.04 586.18,-126.96 585.77,-133.95"/>
<text xml:space="preserve" text-anchor="middle" x="521.56" y="-153" font-family="Arial" font-size="14.00">triggers</text>
</g>
<!-- Event::TaskCompleted -->
<g id="node12" class="node">
<title>Event::TaskCompleted</title>
<ellipse fill="#ffffff" stroke="black" cx="351.66" cy="-146.3" rx="100.96" ry="18"/>
<text xml:space="preserve" text-anchor="middle" x="351.66" y="-140.88" font-family="Arial" font-size="14.00">Event::TaskCompleted</text>
</g>
<!-- Proc::OnTaskCompleted -->
<g id="node16" class="node">
<title>Proc::OnTaskCompleted</title>
<path fill="#ffffff" stroke="black" d="M739.69,-109.3C739.69,-109.3 599.94,-109.3 599.94,-109.3 593.94,-109.3 587.94,-103.3 587.94,-97.3 587.94,-97.3 587.94,-85.3 587.94,-85.3 587.94,-79.3 593.94,-73.3 599.94,-73.3 599.94,-73.3 739.69,-73.3 739.69,-73.3 745.69,-73.3 751.69,-79.3 751.69,-85.3 751.69,-85.3 751.69,-97.3 751.69,-97.3 751.69,-103.3 745.69,-109.3 739.69,-109.3"/>
<text xml:space="preserve" text-anchor="middle" x="669.81" y="-85.88" font-family="Arial" font-size="14.00">Proc::OnTaskCompleted</text>
</g>
<!-- Event::TaskCompleted&#45;&gt;Proc::OnTaskCompleted -->
<g id="edge10" class="edge">
<title>Event::TaskCompleted&#45;&gt;Proc::OnTaskCompleted</title>
<path fill="none" stroke="black" d="M374.24,-128.38C401.38,-107.12 450.34,-72.9 499.06,-59.55 537.68,-48.97 582.2,-58.07 615.96,-69.19"/>
<polygon fill="black" stroke="black" points="614.49,-72.39 625.09,-72.36 616.79,-65.78 614.49,-72.39"/>
<text xml:space="preserve" text-anchor="middle" x="521.56" y="-62" font-family="Arial" font-size="14.00">triggers</text>
</g>
<!-- Proc::ComputeEarlyIntent&#45;&gt;Event::BestFamilyChanged -->
<g id="edge15" class="edge">
<title>Proc::ComputeEarlyIntent&#45;&gt;Event::BestFamilyChanged</title>
<path fill="none" stroke="black" stroke-dasharray="5,2" d="M583.94,-407.47C572.7,-403.17 562.26,-397.03 554.06,-388.3 535.93,-369 563.33,-347.73 544.06,-329.55 533.92,-319.98 510.06,-314.39 482.5,-311.2"/>
<polygon fill="black" stroke="black" points="483.16,-307.75 472.86,-310.21 482.45,-314.72 483.16,-307.75"/>
<text xml:space="preserve" text-anchor="middle" x="521.56" y="-332" font-family="Arial" font-size="14.00">emits</text>
</g>
<!-- Proc::ComputeEarlyIntent&#45;&gt;Event::EarlyIntentUpdated -->
<g id="edge14" class="edge">
<title>Proc::ComputeEarlyIntent&#45;&gt;Event::EarlyIntentUpdated</title>
<path fill="none" stroke="black" stroke-dasharray="5,2" d="M583.93,-423.13C572.7,-427.42 562.26,-433.57 554.06,-442.3 535.86,-461.69 564.38,-484.14 544.06,-501.3 528.78,-514.21 514.36,-514.18 499.06,-501.3 479.06,-484.45 507.33,-462.02 489.06,-443.3 483.03,-437.11 476.01,-432.13 468.4,-428.13"/>
<polygon fill="black" stroke="black" points="470.03,-425.02 459.48,-424.05 467.12,-431.39 470.03,-425.02"/>
<text xml:space="preserve" text-anchor="middle" x="521.56" y="-513.42" font-family="Arial" font-size="14.00">emits</text>
</g>
<!-- HumanActionOntology (OA) -->
<g id="node23" class="node">
<title>HumanActionOntology (OA)</title>
<polygon fill="#fff7e6" stroke="black" points="1084.56,-459.3 1081.56,-463.3 1060.56,-463.3 1057.56,-459.3 899.06,-459.3 899.06,-423.3 1084.56,-423.3 1084.56,-459.3"/>
<text xml:space="preserve" text-anchor="middle" x="991.81" y="-435.88" font-family="Arial" font-size="14.00">HumanActionOntology (OA)</text>
</g>
<!-- Proc::ComputeEarlyIntent&#45;&gt;HumanActionOntology (OA) -->
<g id="edge19" class="edge">
<title>Proc::ComputeEarlyIntent&#45;&gt;HumanActionOntology (OA)</title>
<path fill="none" stroke="black" d="M755.8,-433.79C765.89,-436.43 776,-439.28 785.56,-442.3 790.13,-443.74 790.86,-445.39 795.56,-446.3 832.88,-453.49 843.07,-447.17 881.06,-446.3 883.12,-446.25 885.2,-446.2 887.29,-446.15"/>
<polygon fill="black" stroke="black" points="887.2,-449.65 897.09,-445.85 886.99,-442.65 887.2,-449.65"/>
<text xml:space="preserve" text-anchor="middle" x="838.31" y="-452.14" font-family="Arial" font-size="14.00">reads/infers</text>
</g>
<!-- Proc::DetectAction&#45;&gt;MemoryStore (per&#45;human) -->
<g id="edge28" class="edge">
<title>Proc::DetectAction&#45;&gt;MemoryStore (per&#45;human)</title>
<path fill="none" stroke="black" d="M734.08,-378.9C780.95,-387.73 843.03,-389.9 881.06,-353.3 902.1,-333.05 877.04,-247.91 891.06,-222.3 902.73,-201 923.3,-183.98 942.74,-171.57"/>
<polygon fill="black" stroke="black" points="944.42,-174.64 951.15,-166.46 940.79,-168.66 944.42,-174.64"/>
<text xml:space="preserve" text-anchor="middle" x="838.31" y="-386.47" font-family="Arial" font-size="14.00">writes</text>
</g>
<!-- Proc::DetectAction&#45;&gt;Event::ActionRecognized -->
<g id="edge13" class="edge">
<title>Proc::DetectAction&#45;&gt;Event::ActionRecognized</title>
<path fill="none" stroke="black" stroke-dasharray="5,2" d="M605.71,-359.69C586.67,-356.05 567.33,-348.65 554.06,-334.3 534.29,-312.92 565.4,-289.37 544.06,-269.55 515.39,-242.91 472.75,-237.5 435,-239.45"/>
<polygon fill="black" stroke="black" points="435.21,-235.92 425.48,-240.12 435.71,-242.91 435.21,-235.92"/>
<text xml:space="preserve" text-anchor="middle" x="521.56" y="-272" font-family="Arial" font-size="14.00">emits</text>
</g>
<!-- Proc::DetectAction&#45;&gt;HumanActionOntology (OA) -->
<g id="edge20" class="edge">
<title>Proc::DetectAction&#45;&gt;HumanActionOntology (OA)</title>
<path fill="none" stroke="black" d="M734.02,-366.28C752.08,-370.19 770.83,-376.9 785.56,-388.3 793.11,-394.14 787.85,-401.68 795.56,-407.3 803.69,-413.22 845.06,-420.81 887.64,-427.33"/>
<polygon fill="black" stroke="black" points="886.86,-430.75 897.27,-428.77 887.91,-423.83 886.86,-430.75"/>
<text xml:space="preserve" text-anchor="middle" x="838.31" y="-428.2" font-family="Arial" font-size="14.00">reads/infers</text>
</g>
<!-- Proc::DispatchTask&#45;&gt;MemoryStore (per&#45;human) -->
<g id="edge29" class="edge">
<title>Proc::DispatchTask&#45;&gt;MemoryStore (per&#45;human)</title>
<path fill="none" stroke="black" d="M735.86,-196.79C754.1,-192.98 772.49,-185.7 785.56,-172.3 800.7,-156.78 778.73,-138.22 795.56,-124.55 837.08,-90.83 900.94,-106.92 944.22,-124.47"/>
<polygon fill="black" stroke="black" points="942.79,-127.67 953.37,-128.35 945.52,-121.22 942.79,-127.67"/>
<text xml:space="preserve" text-anchor="middle" x="838.31" y="-127" font-family="Arial" font-size="14.00">writes</text>
</g>
<!-- Proc::DispatchTask&#45;&gt;SpotRobotSim -->
<g id="edge26" class="edge">
<title>Proc::DispatchTask&#45;&gt;SpotRobotSim</title>
<path fill="none" stroke="black" d="M735.94,-192.67C753.15,-188.68 770.98,-182.34 785.56,-172.3 792.09,-167.81 788.56,-161.26 795.56,-157.55 829.14,-139.75 848.02,-138.79 881.06,-157.55 888.6,-161.83 885.27,-167.85 891.06,-174.3 908.41,-193.6 931.36,-211.26 950.87,-224.58"/>
<polygon fill="black" stroke="black" points="948.9,-227.48 959.16,-230.11 952.78,-221.65 948.9,-227.48"/>
<text xml:space="preserve" text-anchor="middle" x="838.31" y="-160" font-family="Arial" font-size="14.00">task</text>
</g>
<!-- Proc::DispatchTask&#45;&gt;Event::TaskCompleted -->
<g id="edge16" class="edge">
<title>Proc::DispatchTask&#45;&gt;Event::TaskCompleted</title>
<path fill="none" stroke="black" stroke-dasharray="5,2" d="M603.71,-197.52C585.25,-193.77 566.75,-186.35 554.06,-172.3 531,-146.77 569.91,-118.25 544.06,-95.55 499.1,-56.07 426.8,-93.73 385.12,-121.89"/>
<polygon fill="black" stroke="black" points="383.17,-118.98 376.96,-127.57 387.17,-124.73 383.17,-118.98"/>
<text xml:space="preserve" text-anchor="middle" x="521.56" y="-98" font-family="Arial" font-size="14.00">emits</text>
</g>
<!-- RobotOntology (OR) -->
<g id="node24" class="node">
<title>RobotOntology (OR)</title>
<polygon fill="#fff7e6" stroke="black" points="1062.06,-351.3 1059.06,-355.3 1038.06,-355.3 1035.06,-351.3 921.56,-351.3 921.56,-315.3 1062.06,-315.3 1062.06,-351.3"/>
<text xml:space="preserve" text-anchor="middle" x="991.81" y="-327.88" font-family="Arial" font-size="14.00">RobotOntology (OR)</text>
</g>
<!-- Proc::DispatchTask&#45;&gt;RobotOntology (OR) -->
<g id="edge22" class="edge">
<title>Proc::DispatchTask&#45;&gt;RobotOntology (OR)</title>
<path fill="none" stroke="black" d="M735.91,-187.82C789.61,-180 860.24,-174.06 881.06,-192.55 895.08,-204.99 880.71,-260.68 891.06,-276.3 900.28,-290.21 914.14,-301.12 928.61,-309.5"/>
<polygon fill="black" stroke="black" points="926.87,-312.55 937.34,-314.19 930.18,-306.38 926.87,-312.55"/>
<text xml:space="preserve" text-anchor="middle" x="838.31" y="-195" font-family="Arial" font-size="14.00">executes</text>
</g>
<!-- Proc::OnTaskCompleted&#45;&gt;UpperOntology (OU) -->
<g id="edge23" class="edge">
<title>Proc::OnTaskCompleted&#45;&gt;UpperOntology (OU)</title>
<path fill="none" stroke="black" d="M690.04,-72.94C713.01,-52.4 753.64,-20.32 795.56,-7.55 837.63,5.26 886.79,-0.83 925.25,-10.04"/>
<polygon fill="black" stroke="black" points="924.29,-13.41 934.85,-12.48 926.02,-6.63 924.29,-13.41"/>
<text xml:space="preserve" text-anchor="middle" x="838.31" y="-10" font-family="Arial" font-size="14.00">mode/episode</text>
</g>
<!-- Proc::OnTaskCompleted&#45;&gt;MemoryStore (per&#45;human) -->
<g id="edge30" class="edge">
<title>Proc::OnTaskCompleted&#45;&gt;MemoryStore (per&#45;human)</title>
<path fill="none" stroke="black" d="M697.88,-72.82C739.79,-46.71 821.73,-5.88 881.06,-40.55 888.88,-45.12 885.39,-51.25 891.06,-58.3 910.46,-82.4 936.69,-105.53 957.39,-122.16"/>
<polygon fill="black" stroke="black" points="954.97,-124.71 964.99,-128.17 959.31,-119.22 954.97,-124.71"/>
<text xml:space="preserve" text-anchor="middle" x="838.31" y="-43" font-family="Arial" font-size="14.00">clears</text>
</g>
<!-- Proc::PerceptionToPoseSegment&#45;&gt;MemoryStore (per&#45;human) -->
<g id="edge27" class="edge">
<title>Proc::PerceptionToPoseSegment&#45;&gt;MemoryStore (per&#45;human)</title>
<path fill="none" stroke="black" d="M777.91,-235.86C819.49,-228.36 861.73,-219.66 881.06,-212.3 907.68,-202.17 935.26,-185.81 956.11,-172.04"/>
<polygon fill="black" stroke="black" points="957.89,-175.06 964.23,-166.57 953.98,-169.25 957.89,-175.06"/>
<text xml:space="preserve" text-anchor="middle" x="838.31" y="-234.36" font-family="Arial" font-size="14.00">writes</text>
</g>
<!-- Proc::PerceptionToPoseSegment&#45;&gt;Event::PoseSegmentUpdated -->
<g id="edge11" class="edge">
<title>Proc::PerceptionToPoseSegment&#45;&gt;Event::PoseSegmentUpdated</title>
<path fill="none" stroke="black" stroke-dasharray="5,2" d="M564.12,-271.45C560.5,-274.06 557.12,-276.99 554.06,-280.3 534.22,-301.76 565.38,-325.3 544.06,-345.3 535.19,-353.62 515.83,-358.58 492.68,-361.42"/>
<polygon fill="black" stroke="black" points="492.51,-357.92 482.93,-362.46 493.24,-364.88 492.51,-357.92"/>
<text xml:space="preserve" text-anchor="middle" x="521.56" y="-362.37" font-family="Arial" font-size="14.00">emits</text>
</g>
<!-- PerceptionOntology (OP) -->
<g id="node21" class="node">
<title>PerceptionOntology (OP)</title>
<polygon fill="#fff7e6" stroke="black" points="1075.94,-405.3 1072.94,-409.3 1051.94,-409.3 1048.94,-405.3 907.69,-405.3 907.69,-369.3 1075.94,-369.3 1075.94,-405.3"/>
<text xml:space="preserve" text-anchor="middle" x="991.81" y="-381.88" font-family="Arial" font-size="14.00">PerceptionOntology (OP)</text>
</g>
<!-- Proc::PerceptionToPoseSegment&#45;&gt;PerceptionOntology (OP) -->
<g id="edge17" class="edge">
<title>Proc::PerceptionToPoseSegment&#45;&gt;PerceptionOntology (OP)</title>
<path fill="none" stroke="black" d="M777.92,-256.19C825.71,-258.56 873.12,-262.83 881.06,-270.55 895.46,-284.53 878,-345.06 891.06,-360.3 893.25,-362.85 895.66,-365.18 898.23,-367.29"/>
<polygon fill="black" stroke="black" points="896.11,-370.08 906.33,-372.85 900.07,-364.31 896.11,-370.08"/>
<text xml:space="preserve" text-anchor="middle" x="838.31" y="-273" font-family="Arial" font-size="14.00">updates</text>
</g>
<!-- Proc::PrepareFamilyPretask&#45;&gt;SpotRobotSim -->
<g id="edge25" class="edge">
<title>Proc::PrepareFamilyPretask&#45;&gt;SpotRobotSim</title>
<path fill="none" stroke="black" d="M762.97,-305.37C800.01,-303.16 842.9,-298.8 881.06,-290.3 900.47,-285.98 921.06,-278.98 939.1,-271.97"/>
<polygon fill="black" stroke="black" points="940.29,-275.27 948.28,-268.32 937.69,-268.77 940.29,-275.27"/>
<text xml:space="preserve" text-anchor="middle" x="838.31" y="-304.88" font-family="Arial" font-size="14.00">async pretask</text>
</g>
<!-- Proc::PrepareFamilyPretask&#45;&gt;RobotOntology (OR) -->
<g id="edge21" class="edge">
<title>Proc::PrepareFamilyPretask&#45;&gt;RobotOntology (OR)</title>
<path fill="none" stroke="black" d="M762.9,-325.18C773.88,-326.83 784.95,-328.26 795.56,-329.3 833.01,-332.96 874.69,-334.2 909.89,-334.43"/>
<polygon fill="black" stroke="black" points="909.55,-337.93 919.56,-334.47 909.58,-330.93 909.55,-337.93"/>
<text xml:space="preserve" text-anchor="middle" x="838.31" y="-336.34" font-family="Arial" font-size="14.00">prepares</text>
</g>
<!-- Proc::ResetTickFlags&#45;&gt;UpperOntology (OU) -->
<g id="edge24" class="edge">
<title>Proc::ResetTickFlags&#45;&gt;UpperOntology (OU)</title>
<path fill="none" stroke="black" stroke-dasharray="1,5" d="M742.3,-140.36C758.12,-136.24 773.69,-129.42 785.56,-118.3 796.67,-107.9 784.67,-96.17 795.56,-85.55 804.23,-77.1 859.98,-62.06 909.7,-49.96"/>
<polygon fill="black" stroke="black" points="910.49,-53.37 919.39,-47.62 908.85,-46.57 910.49,-53.37"/>
<text xml:space="preserve" text-anchor="middle" x="838.31" y="-88" font-family="Arial" font-size="14.00">coordination</text>
</g>
<!-- Proc::UpdateHumanState&#45;&gt;Event::HumanStateUpdated -->
<g id="edge12" class="edge">
<title>Proc::UpdateHumanState&#45;&gt;Event::HumanStateUpdated</title>
<path fill="none" stroke="black" stroke-dasharray="5,2" d="M645.15,-487.79C621.21,-505.23 582.37,-530.16 544.06,-540.3 486.51,-555.53 421.94,-520.51 384.43,-494.71"/>
<polygon fill="black" stroke="black" points="386.91,-492.18 376.73,-489.26 382.87,-497.89 386.91,-492.18"/>
<text xml:space="preserve" text-anchor="middle" x="521.56" y="-546.43" font-family="Arial" font-size="14.00">emits</text>
</g>
<!-- HumanStateOntology (OS) -->
<g id="node22" class="node">
<title>HumanStateOntology (OS)</title>
<polygon fill="#fff7e6" stroke="black" points="1081.56,-513.3 1078.56,-517.3 1057.56,-517.3 1054.56,-513.3 902.06,-513.3 902.06,-477.3 1081.56,-477.3 1081.56,-513.3"/>
<text xml:space="preserve" text-anchor="middle" x="991.81" y="-489.88" font-family="Arial" font-size="14.00">HumanStateOntology (OS)</text>
</g>
<!-- Proc::UpdateHumanState&#45;&gt;HumanStateOntology (OS) -->
<g id="edge18" class="edge">
<title>Proc::UpdateHumanState&#45;&gt;HumanStateOntology (OS)</title>
<path fill="none" stroke="black" d="M755.27,-481.02C768.73,-482.63 782.51,-484.13 795.56,-485.3 826.42,-488.07 860.1,-490.13 890.67,-491.64"/>
<polygon fill="black" stroke="black" points="890.11,-495.12 900.26,-492.1 890.44,-488.13 890.11,-495.12"/>
<text xml:space="preserve" text-anchor="middle" x="838.31" y="-493.33" font-family="Arial" font-size="14.00">updates</text>
</g>
<!-- Actions (5) -->
<g id="node25" class="node">
<title>Actions (5)</title>
<polygon fill="#ffffff" stroke="black" points="1286.69,-469.3 1212.19,-469.3 1212.19,-433.3 1292.69,-433.3 1292.69,-463.3 1286.69,-469.3"/>
<polyline fill="none" stroke="black" points="1286.69,-469.3 1286.69,-463.3"/>
<polyline fill="none" stroke="black" points="1292.69,-463.3 1286.69,-463.3"/>
<text xml:space="preserve" text-anchor="middle" x="1252.44" y="-445.88" font-family="Arial" font-size="14.00">Actions (5)</text>
</g>
<!-- HumanActionOntology (OA)&#45;&gt;Actions (5) -->
<g id="edge31" class="edge">
<title>HumanActionOntology (OA)&#45;&gt;Actions (5)</title>
<path fill="none" stroke="black" d="M1084.72,-444.85C1123.68,-446.36 1167.6,-448.06 1200.58,-449.33"/>
<polygon fill="black" stroke="black" points="1200.12,-452.82 1210.25,-449.71 1200.39,-445.82 1200.12,-452.82"/>
<text xml:space="preserve" text-anchor="middle" x="1120.19" y="-449.35" font-family="Arial" font-size="14.00">loads</text>
</g>
<!-- Families (5) -->
<g id="node26" class="node">
<title>Families (5)</title>
<polygon fill="#ffffff" stroke="black" points="1290.06,-415.3 1208.81,-415.3 1208.81,-379.3 1296.06,-379.3 1296.06,-409.3 1290.06,-415.3"/>
<polyline fill="none" stroke="black" points="1290.06,-415.3 1290.06,-409.3"/>
<polyline fill="none" stroke="black" points="1296.06,-409.3 1290.06,-409.3"/>
<text xml:space="preserve" text-anchor="middle" x="1252.44" y="-391.88" font-family="Arial" font-size="14.00">Families (5)</text>
</g>
<!-- HumanActionOntology (OA)&#45;&gt;Families (5) -->
<g id="edge32" class="edge">
<title>HumanActionOntology (OA)&#45;&gt;Families (5)</title>
<path fill="none" stroke="black" d="M1084.72,-425.66C1122.39,-419.26 1164.68,-412.06 1197.25,-406.52"/>
<polygon fill="black" stroke="black" points="1197.57,-410.01 1206.84,-404.89 1196.4,-403.11 1197.57,-410.01"/>
<text xml:space="preserve" text-anchor="middle" x="1120.19" y="-424.38" font-family="Arial" font-size="14.00">builds</text>
</g>
<!-- Tasks (5) -->
<g id="node27" class="node">
<title>Tasks (5)</title>
<polygon fill="#ffffff" stroke="black" points="1281.81,-361.3 1217.06,-361.3 1217.06,-325.3 1287.81,-325.3 1287.81,-355.3 1281.81,-361.3"/>
<polyline fill="none" stroke="black" points="1281.81,-361.3 1281.81,-355.3"/>
<polyline fill="none" stroke="black" points="1287.81,-355.3 1281.81,-355.3"/>
<text xml:space="preserve" text-anchor="middle" x="1252.44" y="-337.88" font-family="Arial" font-size="14.00">Tasks (5)</text>
</g>
<!-- RobotOntology (OR)&#45;&gt;Tasks (5) -->
<g id="edge33" class="edge">
<title>RobotOntology (OR)&#45;&gt;Tasks (5)</title>
<path fill="none" stroke="black" d="M1062.46,-335.99C1107.84,-337.75 1165.78,-339.99 1205.47,-341.52"/>
<polygon fill="black" stroke="black" points="1205.28,-345.02 1215.4,-341.91 1205.55,-338.02 1205.28,-345.02"/>
<text xml:space="preserve" text-anchor="middle" x="1120.19" y="-341.35" font-family="Arial" font-size="14.00">loads</text>
</g>
<!-- Pretasks (4) -->
<g id="node28" class="node">
<title>Pretasks (4)</title>
<polygon fill="#ffffff" stroke="black" points="1290.81,-307.3 1208.06,-307.3 1208.06,-271.3 1296.81,-271.3 1296.81,-301.3 1290.81,-307.3"/>
<polyline fill="none" stroke="black" points="1290.81,-307.3 1290.81,-301.3"/>
<polyline fill="none" stroke="black" points="1296.81,-301.3 1290.81,-301.3"/>
<text xml:space="preserve" text-anchor="middle" x="1252.44" y="-283.88" font-family="Arial" font-size="14.00">Pretasks (4)</text>
</g>
<!-- RobotOntology (OR)&#45;&gt;Pretasks (4) -->
<g id="edge34" class="edge">
<title>RobotOntology (OR)&#45;&gt;Pretasks (4)</title>
<path fill="none" stroke="black" d="M1062.46,-321.45C1104.54,-314.29 1157.41,-305.3 1196.52,-298.64"/>
<polygon fill="black" stroke="black" points="1196.91,-302.13 1206.18,-297 1195.74,-295.23 1196.91,-302.13"/>
<text xml:space="preserve" text-anchor="middle" x="1120.19" y="-316.38" font-family="Arial" font-size="14.00">loads</text>
</g>
</g>
</svg>
